<svg id="Capa_1" enable-background="new 0 0 512 512" height="512" viewBox="0 0 512 512" width="512" xmlns="http://www.w3.org/2000/svg" xmlns:xlink="http://www.w3.org/1999/xlink"><linearGradient id="SVGID_1_" gradientUnits="userSpaceOnUse" x1="256" x2="256" y1="481" y2="31"><stop offset="0" stop-color="#ffc2cc"/><stop offset="1" stop-color="#fff2f4"/></linearGradient><linearGradient id="SVGID_2_" gradientUnits="userSpaceOnUse" x1="256" x2="256" y1="436" y2="61"><stop offset="0" stop-color="#fd3a84"/><stop offset="1" stop-color="#ffa68d"/></linearGradient><g><g><g><path d="m452 61v-15c0-8.291-6.709-15-15-15s-15 6.709-15 15v15l-30 15h-31l-30-15v-15c0-8.291-6.709-15-15-15s-15 6.709-15 15v15l-30 15h-30l-30-15v-15c0-8.291-6.709-15-15-15s-15 6.709-15 15v15l-30 15h-31l-30-15v-15c0-8.291-6.709-15-15-15s-15 6.709-15 15v15l-30 15v390c0 8.291 6.709 15 15 15h422c8.291 0 15-6.709 15-15v-390z" fill="url(#SVGID_1_)"/></g></g><g><g><path d="m301 271c0-19.175-22.852-54.302-32.666-68.525-5.566-8.115-19.102-8.115-24.668 0-9.814 14.223-32.666 49.35-32.666 68.525 0 24.814 20.186 45 45 45s45-20.186 45-45zm45 45h-90-90c-8.291 0-15 6.709-15 15 0 57.891 47.109 105 105 105s105-47.109 105-105c0-8.291-6.709-15-15-15zm151-255h-45v30c0 8.291-6.709 15-15 15s-15-6.709-15-15v-30h-91v30c0 8.291-6.709 15-15 15s-15-6.709-15-15v-30h-90v30c0 8.291-6.709 15-15 15s-15-6.709-15-15v-30h-91v30c0 8.291-6.709 15-15 15s-15-6.709-15-15v-30h-45c-8.291 0-15 6.709-15 15v60c0 8.291 6.709 15 15 15h482c8.291 0 15-6.709 15-15v-60c0-8.291-6.709-15-15-15z" fill="url(#SVGID_2_)"/></g></g></g></svg>